<!-- <svg width="375" height="503" xmlns="http://www.w3.org/2000/svg"><defs><linearGradient x1="100%" y1="69.237%" x2="9.399%" y2="32.159%" id="a"><stop stop-color="#8A4389" stop-opacity="0" offset="0%"/><stop stop-color="#512051" offset="100%"/><stop stop-color="#512051" offset="100%"/><stop stop-color="#512051" offset="100%"/></linearGradient></defs><path d="M-355 1530c74.356-153.934 215.022-251.268 422-292 310.466-61.099 192.94-122.724 345.47-245.025C514.157 911.442 620 866.116 730 857v673H-355z" transform="translate(0 -1027)" fill="url(#a)" fill-rule="evenodd" opacity=".05"/></svg> -->
<svg width="375" height="503" viewBox="0 0 375 503" fill="none" xmlns="http://www.w3.org/2000/svg">
<g clip-path="url(#clip0)">
<path opacity="0.15" fill-rule="evenodd" clip-rule="evenodd" d="M-355 503C-280.644 349.066 -139.978 251.732 67 211C377.466 149.901 259.94 88.276 412.47 -34.025C514.157 -115.558 620 -160.884 730 -170V503H-355Z" fill="url(#paint0_linear)"/>
</g>
<defs>
<linearGradient id="paint0_linear" x1="730" y1="295.965" x2="-69.5908" y2="-231.588" gradientUnits="userSpaceOnUse">
<stop stop-color="#8A4389" stop-opacity="0"/>
<stop offset="1" stop-color="#512051"/>
</linearGradient>
<clipPath id="clip0">
<rect width="375" height="503" fill="white"/>
</clipPath>
</defs>
</svg>

