<svg width="17" height="16" viewBox="0 0 17 16" fill="none" xmlns="http://www.w3.org/2000/svg">
<path d="M16.5074 6.11873L16.5077 6.11868C16.5304 6.19005 16.511 6.26942 16.4566 6.32471C16.4564 6.32485 16.4563 6.32498 16.4562 6.32511L12.5622 10.161L12.5251 10.1976L12.5338 10.249L13.4533 15.6643L13.4534 15.6648C13.4599 15.7019 13.4559 15.7401 13.442 15.775C13.428 15.8099 13.4048 15.84 13.3749 15.8619C13.3451 15.8839 13.3098 15.8969 13.2732 15.8995C13.2366 15.9021 13.2 15.8943 13.1674 15.8769L13.1672 15.8768L8.35483 13.3203L8.30792 13.2954L8.26101 13.3203L3.44805 15.8766C3.448 15.8766 3.44794 15.8766 3.44789 15.8767C3.41536 15.8937 3.37887 15.9012 3.34245 15.8985C3.30597 15.8958 3.27087 15.8828 3.2411 15.861C3.21131 15.8391 3.18799 15.8093 3.1739 15.7746C3.15984 15.7399 3.15555 15.702 3.16155 15.665C3.16157 15.6649 3.16158 15.6648 3.1616 15.6647L4.08201 10.248L4.09075 10.1966L4.05358 10.16L0.159235 6.32571C0.159156 6.32563 0.159077 6.32555 0.158999 6.32548C0.13288 6.2993 0.114357 6.2662 0.10563 6.2298C0.0968752 6.19329 0.0983569 6.15503 0.109894 6.11935C0.121429 6.08367 0.142522 6.05208 0.17067 6.02805C0.198764 6.00406 0.23279 5.98853 0.268918 5.98306C0.268975 5.98305 0.269032 5.98304 0.269089 5.98303L5.64925 5.1928L5.70141 5.18514L5.72456 5.13777L8.13262 0.210679C8.13264 0.210627 8.13267 0.210576 8.13269 0.210525C8.14916 0.177155 8.17442 0.149228 8.20552 0.129762C8.23666 0.110272 8.27247 0.1 8.30892 0.1C8.34537 0.1 8.38118 0.110272 8.41231 0.129762C8.44338 0.149206 8.46862 0.177093 8.48509 0.210413C8.48513 0.210502 8.48518 0.21059 8.48522 0.210679L10.8913 5.13674L10.9144 5.18412L10.9666 5.19179L16.3471 5.98207L16.3472 5.98209C16.3836 5.9874 16.4179 6.00291 16.4463 6.027C16.4746 6.05111 16.4958 6.08285 16.5074 6.11873Z" fill="white" stroke="black" stroke-width="0.2"/>
</svg>
